# xmcd CD database file
#
# Track frame offsets:
#	150
#	12933
#	26333
#	39288
#	52455
#	64103
#	77975
#	89343
#	101948
#	114633
#	126015
#	138793
#	149675
#	163188
#	177175
#	189420
#
# Disc length: 2707 seconds
#
# Revision: 0
# Processed by: cddbd v1.4PL0 Copyright (c) Steve Scherf et al.
# Submitted via: CDex 1.40Beta9
#
DISCID=e20a9110
DTITLE=Lowell Fulson - San Francisco Blues
DYEAR=1967
DGENRE=Blues
TTITLE0=Miss Lillie Brown
TTITLE1=Country Boy Blues
TTITLE2=Fillmore Mess Around
TTITLE3=Midnight Shower
TTITLE4=So Long, So Long
TTITLE5=One More Drink
TTITLE6=Come Back, Baby
TTITLE7=Don't Be So Evil
TTITLE8=Poor Boy Blues
TTITLE9=Market Street Blues
TTITLE10=Let Me Ride Your Little Automobile
TTITLE11=San Francisco Blues
TTITLE12=Television Blues
TTITLE13=Angel Smile
TTITLE14=Jenny Lee
TTITLE15=Baby Don't You Hear Me Calling
EXTD=YEAR: 1967 ID3G: 0
EXTT0=
EXTT1=
EXTT2=
EXTT3=
EXTT4=
EXTT5=
EXTT6=
EXTT7=
EXTT8=
EXTT9=
EXTT10=
EXTT11=
EXTT12=
EXTT13=
EXTT14=
EXTT15=
PLAYORDER=
